<?xml version="1.0" encoding="UTF-8" standalone="no"?>
<!DOCTYPE svg PUBLIC "-//W3C//DTD SVG 1.1//EN"
 "http://www.w3.org/Graphics/SVG/1.1/DTD/svg11.dtd">
<!-- Generated by graphviz version 2.43.0 (0)
 -->
<!-- Title: pastafarianism Pages: 1 -->
<svg width="476pt" height="334pt"
 viewBox="0.00 0.00 475.64 333.54" xmlns="http://www.w3.org/2000/svg" xmlns:xlink="http://www.w3.org/1999/xlink">
<g id="graph0" class="graph" transform="scale(1 1) rotate(0) translate(4 329.54)">
<title>pastafarianism</title>
<polygon fill="white" stroke="transparent" points="-4,4 -4,-329.54 471.64,-329.54 471.64,4 -4,4"/>
<!-- Root -->
<g id="node1" class="node">
<title>Root</title>
<polygon fill="cyan" stroke="black" points="154.16,-300.08 154.16,-314.99 138.35,-325.54 115.98,-325.54 100.16,-314.99 100.16,-300.08 115.98,-289.54 138.35,-289.54 154.16,-300.08"/>
<text text-anchor="middle" x="127.16" y="-304.84" font-family="Times,serif" font-size="9.00">Root</text>
</g>
<!-- RunningIsFailure -->
<g id="node2" class="node">
<title>RunningIsFailure</title>
<ellipse fill="ghostwhite" stroke="black" cx="82.16" cy="-235.54" rx="44.62" ry="18"/>
<text text-anchor="middle" x="82.16" y="-232.84" font-family="Times,serif" font-size="9.00">RunningIsFailure</text>
</g>
<!-- Root&#45;&gt;RunningIsFailure -->
<g id="edge1" class="edge">
<title>Root&#45;&gt;RunningIsFailure</title>
<path fill="none" stroke="black" d="M116.04,-289.24C110.73,-280.98 104.27,-270.93 98.43,-261.84"/>
<polygon fill="black" stroke="black" points="101.2,-259.68 92.85,-253.16 95.31,-263.47 101.2,-259.68"/>
</g>
<!-- Pick Up\nWhere You\nLeft Off -->
<g id="node4" class="node">
<title>Pick Up\nWhere You\nLeft Off</title>
<polygon fill="orange" stroke="black" points="247.17,-253.54 191.15,-253.54 191.15,-217.54 247.17,-217.54 247.17,-253.54"/>
<text text-anchor="middle" x="219.16" y="-241.84" font-family="Times,serif" font-size="9.00">Pick Up</text>
<text text-anchor="middle" x="219.16" y="-232.84" font-family="Times,serif" font-size="9.00">Where You</text>
<text text-anchor="middle" x="219.16" y="-223.84" font-family="Times,serif" font-size="9.00">Left Off</text>
</g>
<!-- Root&#45;&gt;Pick Up\nWhere You\nLeft Off -->
<g id="edge3" class="edge">
<title>Root&#45;&gt;Pick Up\nWhere You\nLeft Off</title>
<path fill="none" stroke="black" d="M144.47,-293.37C156.82,-283.97 173.78,-271.07 188.41,-259.93"/>
<polygon fill="black" stroke="black" points="190.87,-262.46 196.71,-253.62 186.63,-256.89 190.87,-262.46"/>
</g>
<!-- High Priority -->
<g id="node3" class="node">
<title>High Priority</title>
<ellipse fill="gray" stroke="black" cx="36.16" cy="-163.15" rx="36.32" ry="18"/>
<text text-anchor="middle" x="36.16" y="-160.45" font-family="Times,serif" font-size="9.00">High Priority</text>
</g>
<!-- RunningIsFailure&#45;&gt;High Priority -->
<g id="edge2" class="edge">
<title>RunningIsFailure&#45;&gt;High Priority</title>
<path fill="none" stroke="black" d="M71.26,-217.86C65.7,-209.36 58.83,-198.84 52.64,-189.37"/>
<polygon fill="black" stroke="black" points="55.39,-187.17 46.98,-180.71 49.53,-191 55.39,-187.17"/>
</g>
<!-- Do or Don&#39;t -->
<g id="node5" class="node">
<title>Do or Don&#39;t</title>
<polygon fill="cyan" stroke="black" points="162.14,-155.7 162.14,-170.61 141.06,-181.15 111.26,-181.15 90.18,-170.61 90.18,-155.7 111.26,-145.15 141.06,-145.15 162.14,-155.7"/>
<text text-anchor="middle" x="126.16" y="-160.45" font-family="Times,serif" font-size="9.00">Do or Don&#39;t</text>
</g>
<!-- Pick Up\nWhere You\nLeft Off&#45;&gt;Do or Don&#39;t -->
<g id="edge4" class="edge">
<title>Pick Up\nWhere You\nLeft Off&#45;&gt;Do or Don&#39;t</title>
<path fill="none" stroke="black" d="M196.65,-217.5C183.74,-207.73 167.43,-195.39 153.75,-185.04"/>
<polygon fill="black" stroke="black" points="155.72,-182.13 145.63,-178.89 151.49,-187.72 155.72,-182.13"/>
</g>
<!-- Do or Don&#39;t* -->
<g id="node10" class="node">
<title>Do or Don&#39;t*</title>
<polygon fill="cyan" stroke="black" points="257.67,-155.7 257.67,-170.61 235.11,-181.15 203.21,-181.15 180.66,-170.61 180.66,-155.7 203.21,-145.15 235.11,-145.15 257.67,-155.7"/>
<text text-anchor="middle" x="219.16" y="-160.45" font-family="Times,serif" font-size="9.00">Do or Don&#39;t*</text>
</g>
<!-- Pick Up\nWhere You\nLeft Off&#45;&gt;Do or Don&#39;t* -->
<g id="edge9" class="edge">
<title>Pick Up\nWhere You\nLeft Off&#45;&gt;Do or Don&#39;t*</title>
<path fill="none" stroke="black" d="M219.16,-217.5C219.16,-209.75 219.16,-200.38 219.16,-191.67"/>
<polygon fill="black" stroke="black" points="222.66,-191.52 219.16,-181.52 215.66,-191.52 222.66,-191.52"/>
</g>
<!-- Clear\ntask_1_done -->
<g id="node15" class="node">
<title>Clear\ntask_1_done</title>
<ellipse fill="gray" stroke="black" cx="319.16" cy="-163.15" rx="43.46" ry="18.27"/>
<text text-anchor="middle" x="319.16" y="-164.95" font-family="Times,serif" font-size="9.00">Clear</text>
<text text-anchor="middle" x="319.16" y="-155.95" font-family="Times,serif" font-size="9.00">task_1_done</text>
</g>
<!-- Pick Up\nWhere You\nLeft Off&#45;&gt;Clear\ntask_1_done -->
<g id="edge14" class="edge">
<title>Pick Up\nWhere You\nLeft Off&#45;&gt;Clear\ntask_1_done</title>
<path fill="none" stroke="black" d="M243.37,-217.5C257.19,-207.77 274.63,-195.5 289.29,-185.18"/>
<polygon fill="black" stroke="black" points="291.4,-187.98 297.56,-179.36 287.37,-182.25 291.4,-187.98"/>
</g>
<!-- Clear\ntask_2_done -->
<g id="node16" class="node">
<title>Clear\ntask_2_done</title>
<ellipse fill="gray" stroke="black" cx="424.16" cy="-163.15" rx="43.46" ry="18.27"/>
<text text-anchor="middle" x="424.16" y="-164.95" font-family="Times,serif" font-size="9.00">Clear</text>
<text text-anchor="middle" x="424.16" y="-155.95" font-family="Times,serif" font-size="9.00">task_2_done</text>
</g>
<!-- Pick Up\nWhere You\nLeft Off&#45;&gt;Clear\ntask_2_done -->
<g id="edge15" class="edge">
<title>Pick Up\nWhere You\nLeft Off&#45;&gt;Clear\ntask_2_done</title>
<path fill="none" stroke="black" d="M247.24,-224.9C281.98,-212.97 341.49,-192.54 381.8,-178.7"/>
<polygon fill="black" stroke="black" points="383.03,-181.98 391.35,-175.42 380.76,-175.36 383.03,-181.98"/>
</g>
<!-- Done? -->
<g id="node6" class="node">
<title>Done?</title>
<ellipse fill="gray" stroke="black" cx="64.16" cy="-90.77" rx="27" ry="18"/>
<text text-anchor="middle" x="64.16" y="-88.07" font-family="Times,serif" font-size="9.00">Done?</text>
</g>
<!-- Do or Don&#39;t&#45;&gt;Done? -->
<g id="edge5" class="edge">
<title>Do or Don&#39;t&#45;&gt;Done?</title>
<path fill="none" stroke="black" d="M111.15,-145.12C103.01,-135.87 92.84,-124.32 84.04,-114.34"/>
<polygon fill="black" stroke="black" points="86.58,-111.93 77.35,-106.74 81.33,-116.56 86.58,-111.93"/>
</g>
<!-- Worker -->
<g id="node7" class="node">
<title>Worker</title>
<polygon fill="orange" stroke="black" points="163.16,-108.77 109.16,-108.77 109.16,-72.77 163.16,-72.77 163.16,-108.77"/>
<text text-anchor="middle" x="136.16" y="-88.07" font-family="Times,serif" font-size="9.00">Worker</text>
</g>
<!-- Do or Don&#39;t&#45;&gt;Worker -->
<g id="edge6" class="edge">
<title>Do or Don&#39;t&#45;&gt;Worker</title>
<path fill="none" stroke="black" d="M128.58,-145.12C129.68,-137.36 131.01,-127.99 132.25,-119.28"/>
<polygon fill="black" stroke="black" points="135.75,-119.53 133.69,-109.14 128.82,-118.55 135.75,-119.53"/>
</g>
<!-- Task 1 -->
<g id="node8" class="node">
<title>Task 1</title>
<ellipse fill="gray" stroke="black" cx="62.16" cy="-18.38" rx="27" ry="18"/>
<text text-anchor="middle" x="62.16" y="-15.68" font-family="Times,serif" font-size="9.00">Task 1</text>
</g>
<!-- Worker&#45;&gt;Task 1 -->
<g id="edge7" class="edge">
<title>Worker&#45;&gt;Task 1</title>
<path fill="none" stroke="black" d="M118.25,-72.73C108.2,-63.17 95.56,-51.15 84.83,-40.94"/>
<polygon fill="black" stroke="black" points="87.07,-38.24 77.41,-33.89 82.24,-43.32 87.07,-38.24"/>
</g>
<!-- Mark\ntask_1_done -->
<g id="node9" class="node">
<title>Mark\ntask_1_done</title>
<ellipse fill="gray" stroke="black" cx="150.16" cy="-18.38" rx="43.46" ry="18.27"/>
<text text-anchor="middle" x="150.16" y="-20.18" font-family="Times,serif" font-size="9.00">Mark</text>
<text text-anchor="middle" x="150.16" y="-11.18" font-family="Times,serif" font-size="9.00">task_1_done</text>
</g>
<!-- Worker&#45;&gt;Mark\ntask_1_done -->
<g id="edge8" class="edge">
<title>Worker&#45;&gt;Mark\ntask_1_done</title>
<path fill="none" stroke="black" d="M139.55,-72.73C141.11,-64.89 143,-55.4 144.75,-46.61"/>
<polygon fill="black" stroke="black" points="148.19,-47.25 146.71,-36.76 141.32,-45.88 148.19,-47.25"/>
</g>
<!-- Done?* -->
<g id="node11" class="node">
<title>Done?*</title>
<ellipse fill="gray" stroke="black" cx="214.16" cy="-90.77" rx="27" ry="18"/>
<text text-anchor="middle" x="214.16" y="-88.07" font-family="Times,serif" font-size="9.00">Done?*</text>
</g>
<!-- Do or Don&#39;t*&#45;&gt;Done?* -->
<g id="edge10" class="edge">
<title>Do or Don&#39;t*&#45;&gt;Done?*</title>
<path fill="none" stroke="black" d="M217.95,-145.12C217.4,-137.36 216.73,-127.99 216.12,-119.28"/>
<polygon fill="black" stroke="black" points="219.6,-118.87 215.4,-109.14 212.61,-119.36 219.6,-118.87"/>
</g>
<!-- Worker* -->
<g id="node12" class="node">
<title>Worker*</title>
<polygon fill="orange" stroke="black" points="313.16,-108.77 259.16,-108.77 259.16,-72.77 313.16,-72.77 313.16,-108.77"/>
<text text-anchor="middle" x="286.16" y="-88.07" font-family="Times,serif" font-size="9.00">Worker*</text>
</g>
<!-- Do or Don&#39;t*&#45;&gt;Worker* -->
<g id="edge11" class="edge">
<title>Do or Don&#39;t*&#45;&gt;Worker*</title>
<path fill="none" stroke="black" d="M235.38,-145.12C243.57,-136.51 253.66,-125.92 262.68,-116.44"/>
<polygon fill="black" stroke="black" points="265.27,-118.8 269.63,-109.14 260.2,-113.97 265.27,-118.8"/>
</g>
<!-- Task 2 -->
<g id="node13" class="node">
<title>Task 2</title>
<ellipse fill="gray" stroke="black" cx="276.16" cy="-18.38" rx="27" ry="18"/>
<text text-anchor="middle" x="276.16" y="-15.68" font-family="Times,serif" font-size="9.00">Task 2</text>
</g>
<!-- Worker*&#45;&gt;Task 2 -->
<g id="edge12" class="edge">
<title>Worker*&#45;&gt;Task 2</title>
<path fill="none" stroke="black" d="M283.74,-72.73C282.64,-64.98 281.31,-55.61 280.07,-46.9"/>
<polygon fill="black" stroke="black" points="283.5,-46.16 278.63,-36.76 276.57,-47.15 283.5,-46.16"/>
</g>
<!-- Mark\ntask_2_done -->
<g id="node14" class="node">
<title>Mark\ntask_2_done</title>
<ellipse fill="gray" stroke="black" cx="364.16" cy="-18.38" rx="43.46" ry="18.27"/>
<text text-anchor="middle" x="364.16" y="-20.18" font-family="Times,serif" font-size="9.00">Mark</text>
<text text-anchor="middle" x="364.16" y="-11.18" font-family="Times,serif" font-size="9.00">task_2_done</text>
</g>
<!-- Worker*&#45;&gt;Mark\ntask_2_done -->
<g id="edge13" class="edge">
<title>Worker*&#45;&gt;Mark\ntask_2_done</title>
<path fill="none" stroke="black" d="M305.04,-72.73C315.2,-63.56 327.87,-52.13 338.87,-42.21"/>
<polygon fill="black" stroke="black" points="341.44,-44.6 346.52,-35.3 336.75,-39.4 341.44,-44.6"/>
</g>
</g>
</svg>
